# xmcd CD database file
# Copyright (C) 1993-1998 Ti Kan
#
# Track frame offsets:
#  180
#  21710
#  36699
#
# Disc length: 764 seconds
#
# Revision: 1
# Processed by: cddbd v1.4b41PL1 Copyright (c) Steve Scherf et al.
# Submitted via: CDWizzard Release:4.24
#
DISCID=2a02fa03
DTITLE=Shelley King - Shelley King Demo 12-12-1997
DYEAR=1900
DGENRE=
TTITLE0=Is There A Reason
TTITLE1=Robyn's Song
TTITLE2=Drivin' By Myself
EXTD=
EXTT0=
EXTT1=
EXTT2=
PLAYORDER=
